<?xml version="1.0" encoding="UTF-8" standalone="no"?>
<!-- Created with Inkscape (http://www.inkscape.org/) -->

<svg
   version="1.1"
   id="svg1"
   viewBox="0 0 2000 1656.998"
   sodipodi:docname="formatting error.svg"
   inkscape:version="1.4 (e7c3feb100, 2024-10-09)"
   xmlns:inkscape="http://www.inkscape.org/namespaces/inkscape"
   xmlns:sodipodi="http://sodipodi.sourceforge.net/DTD/sodipodi-0.dtd"
   xmlns="http://www.w3.org/2000/svg"
   xmlns:svg="http://www.w3.org/2000/svg">
  <defs
     id="defs1">
    <linearGradient
       x1="0"
       y1="0"
       x2="1"
       y2="0"
       gradientUnits="userSpaceOnUse"
       gradientTransform="matrix(6007.11,0,0,-6007.11,12091.4,16515.6)"
       spreadMethod="pad"
       id="linearGradient50">
      <stop
         style="stop-opacity:1;stop-color:#e57f54"
         offset="0"
         id="stop49" />
      <stop
         style="stop-opacity:1;stop-color:#d8513e"
         offset="1"
         id="stop50" />
    </linearGradient>
  </defs>
  <sodipodi:namedview
     id="namedview1"
     pagecolor="#ffffff"
     bordercolor="#000000"
     borderopacity="0.25"
     inkscape:showpageshadow="2"
     inkscape:pageopacity="0.0"
     inkscape:pagecheckerboard="0"
     inkscape:deskcolor="#d1d1d1"
     showguides="true"
     inkscape:zoom="0.24983344"
     inkscape:cx="502.33468"
     inkscape:cy="866.57736"
     inkscape:window-width="3440"
     inkscape:window-height="1363"
     inkscape:window-x="0"
     inkscape:window-y="280"
     inkscape:window-maximized="1"
     inkscape:current-layer="g1">
    <inkscape:page
       x="0"
       y="0"
       inkscape:label="1"
       id="page1"
       width="2000"
       height="1656.998"
       margin="0"
       bleed="0" />
    <sodipodi:guide
       position="1450.1733,2409.5958"
       orientation="0,-1"
       id="guide57"
       inkscape:locked="false" />
    <sodipodi:guide
       position="1377.3204,4059.6901"
       orientation="1,0"
       id="guide58"
       inkscape:locked="false" />
    <sodipodi:guide
       position="1438.5864,3936.7957"
       orientation="1,0"
       id="guide59"
       inkscape:locked="false" />
  </sodipodi:namedview>
  <g
     id="g1"
     inkscape:groupmode="layer"
     inkscape:label="1"
     transform="translate(-1001.3333,-1014.6667)">
    <g
       id="g59">
      <path
         id="path45"
         d="m 21286,10455.6 c 83.2,-11.7 192.1,16.9 255.9,35.6 51.7,15.1 177.2,76.1 205.9,101.1 l 137.3,152.5 c 1.4,1.6 3.5,3.8 4.9,5.4 34.1,40.6 59.2,97.8 83.2,148.6 l 24.8,66.1 c 43.1,122.4 43.7,133.2 44.3,265.1 8.185,1883.02 4.84,8288.994 -5,8346.7 -84.018,7.413 -13985.2843,8.882 -14026.51,1.4 -35.38,-6.5 -9.07,4.7 -28.06,-11.3 -22.2374,-2681.325 -9.1,-5364.865 -9.1,-8046.8 0,-103 -1.56,-207.2 0.24,-310 1.21,-68.6 -5.77,-147 20.59,-207.3 l 20.06,-60.3 c 35.57,-82.9 87.55,-197.6 159.45,-257.1 10.17,-8.4 13.64,-11.9 21.7,-19.4 29.86,-27.8 58.42,-38.8 94.24,-66.8 36.81,-28.9 51.14,-37.5 93.85,-56.9 159.82,-72.8 223.32,-70.2 411.32,-68.9"
         style="fill:#52505d;fill-opacity:1;fill-rule:evenodd;stroke:none"
         transform="matrix(0.13333333,0,0,-0.13333333,0,4002.6667)"
         sodipodi:nodetypes="cccccccccccscccccccc" />
      <path
         id="path6"
         d="m 14099.9,16440.4 c -21.4,35.8 -52.1,44.1 -82.7,105.1 -21.4,42.5 -29.9,97.6 -12.6,150.4 36.6,111.3 111.2,155.2 225.3,157.7 308.7,6.8 2212.4,8.2 2264.1,-10.9 195.5,-72.2 179.8,-386.3 -35.6,-419.4 -75.5,-11.6 -633.8,-4.2 -758.4,-4.2 -504.2,0 -1028.7,14.1 -1530,0.4 53.4,-42.2 272.2,-24 370,-24 338.8,0 1758.7,-17 1932.2,12 57.7,9.6 43.3,0.3 95.1,45.2 119.3,103.4 117.9,273.3 -3.5,371.3 -1.7,1.4 -4.1,3.1 -5.8,4.4 l -16.8,13.4 c -91.5,68.7 -618.3,44.1 -781.2,44.1 -95,0 -1499.9,8.4 -1554.3,-3.9 -97,-22 -189.3,-66.2 -220.6,-165.8 -28.4,-90.2 -6.8,-166.4 45.9,-235.6 21.1,-27.6 34.8,-33.5 68.9,-40.2"
         style="fill:#29292f;fill-opacity:1;fill-rule:evenodd;stroke:none"
         transform="matrix(0.13333333,0,0,-0.13333333,0,4002.6667)" />
      <path
         id="path7"
         d="m 9048.8,17810 c 101.34,18.7 163.83,33.9 242.86,-28.4 98.08,-77.4 140.43,-294.1 -68.3,-375.8 -104.75,-41 -140.9,10.7 -225.13,44.1 16.63,-42.8 52.71,-63.5 101.35,-72 46.95,-8.2 111.17,-8.1 152.56,11.2 165.77,77 194.18,305.3 49.36,412 -53.37,39.4 -161.52,73.2 -220.95,39 -36.39,-21 -14.1,-6.6 -31.75,-30.1"
         style="fill:#29292f;fill-opacity:1;fill-rule:evenodd;stroke:none"
         transform="matrix(0.13333333,0,0,-0.13333333,0,4002.6667)" />
      <path
         id="path9"
         d="m 9131.7,14959.9 c -39.32,-12.3 -44.49,-1.2 -86.2,-24.8 -30.83,-17.4 -40.61,-27.6 -68.6,-52.4 -120.29,-106.7 -54.2,-379.6 193.53,-373.5 145.93,3.5 225.44,124.5 211.79,250.2 -12.16,112.1 -131.34,237.7 -250.52,200.5"
         style="fill:#030304;fill-opacity:1;fill-rule:evenodd;stroke:none"
         transform="matrix(0.13333333,0,0,-0.13333333,0,4002.6667)" />
      <path
         id="path10"
         d="m 9106.99,15924.4 c -385.27,-102.9 -72.24,-653.4 227.31,-367.9 48.48,46.2 59.93,136.3 51.06,202.9 -8.81,66.3 -113.23,209.1 -278.37,165"
         style="fill:#030304;fill-opacity:1;fill-rule:evenodd;stroke:none"
         transform="matrix(0.13333333,0,0,-0.13333333,0,4002.6667)" />
      <path
         id="path13"
         d="m 10120,13545.2 h 2320 c 289.2,0 325,306.5 190.7,414.3 -68.9,55.2 -79.3,57.8 -200.7,57.8 -239.4,0 -2377.5,6.5 -2427,-5 -133.6,-30.9 -227.25,-260.9 -77.99,-407.5 47.78,-47 123.79,-59.6 194.99,-59.6"
         style="fill:#020203;fill-opacity:1;fill-rule:evenodd;stroke:none"
         transform="matrix(0.13333333,0,0,-0.13333333,0,4002.6667)" />
      <path
         id="path14"
         d="m 2545.3333,1788.9334 c 32.12,0 301.2933,1.7867 309.52,-1.24 0.1733,-0.067 2.44,-1.2 2.5733,-1.2666 l 5.9867,-4.36 c 10.3733,-9.4 14.9333,-24.1067 8.36,-38.1467 -1.2,-2.5467 -5.4,-7.5067 -7.5334,-9.5067 -6.8,-6.4 -14.0266,-8.3466 -26.9066,-8.3466 -31.2667,0 -300.52,-1.9467 -307.6134,1.28 -14.4533,6.6133 -21.1733,13.76 -21.2266,29.9733 -0.027,5.72 0.093,10.3733 2.64,14.3067 3.1333,4.8533 6.9466,10.0133 12.0933,12.9066 7.1333,4 14.0267,4.4 22.1067,4.4"
         style="fill:#020203;fill-opacity:1;fill-rule:evenodd;stroke:none;stroke-width:0.133333" />
      <path
         id="path15"
         d="m 2525.3333,2320.0934 312,0.64 c 15.52,0 28.0133,-4.4667 32.4933,-13.24 0.2533,-0.4933 1.8,-3.4133 1.8,-3.4267 0.3067,-0.7466 3.64,-13.1733 3.6667,-13.5733 0.3333,-5.8267 -4.68,-17.5333 -10.56,-23.24 -6.0134,-5.8266 -14.3734,-9.4533 -26.0667,-9.4533 h -294.6667 c -9.5333,0 -15.76,2.5333 -23.08,6.1333 -7.76,3.8267 -0.2266,-0.64 -9.64,11.3333 -3.0666,3.9067 -1.4533,-0.84 -2.4133,4.88 -1.64,9.8534 0.4133,19.64 3.36,25.24 5.3467,10.1867 11.1867,8.04 13.1067,14.7067"
         style="fill:#020203;fill-opacity:1;fill-rule:evenodd;stroke:none;stroke-width:0.133333" />
      <path
         id="path16"
         d="m 11090,16402.6 h 2110 c 333.2,0 354.6,387.1 117,453.2 -113.9,31.6 -1961.1,14 -2237,14 -292.6,0 -329.4,-299 -179.2,-409.3 76.1,-55.9 19.8,-35.2 70.3,-45.7 34.8,-7.2 81.1,-12.2 118.9,-12.2"
         style="fill:#020203;fill-opacity:1;fill-rule:evenodd;stroke:none"
         transform="matrix(0.13333333,0,0,-0.13333333,0,4002.6667)" />
      <path
         id="path17"
         d="m 9073.7,16847.2 c -116.02,-55.1 -167.56,-153.6 -132.57,-286.4 68.47,-259.6 524.22,-159.5 434.58,145 -18.35,62.4 -57.48,82.9 -84.31,105.9 -43.62,37.2 -37.2,41.1 -100.69,44.6 -36.59,2 -91.03,3.2 -117.01,-9.1"
         style="fill:#020203;fill-opacity:1;fill-rule:evenodd;stroke:none"
         transform="matrix(0.13333333,0,0,-0.13333333,0,4002.6667)" />
      <path
         id="path18"
         d="m 10029.6,20890 c 7.7,-31.3 71.9,-91.1 102.3,-108.6 65.6,-37.7 114.1,-32.3 174.2,-9.1 46.2,17.8 89.6,53.7 118,93.5 25.2,35.3 28.4,139.7 9.5,188.5 -50.7,130.4 -263.4,210.8 -387.1,29.5 -26.8,-39.4 -31.2,-135.7 -16.9,-193.8"
         style="fill:#020203;fill-opacity:1;fill-rule:evenodd;stroke:none"
         transform="matrix(0.13333333,0,0,-0.13333333,0,4002.6667)" />
      <path
         id="path19"
         d="m 20913.7,21165.2 -10.1,-28.9 c -129,-47.3 -120.7,-293.5 23.4,-351.1 144.7,-57.8 158.9,2.4 243.7,34.7 57.7,36.2 83.2,192.6 10.6,291.1 -94.7,128.4 -257.1,54.1 -267.6,54.2"
         style="fill:#020203;fill-opacity:1;fill-rule:evenodd;stroke:none"
         transform="matrix(0.13333333,0,0,-0.13333333,0,4002.6667)" />
      <path
         id="path20"
         d="m 9139.78,20781.5 c 60.35,38.3 45.56,21.3 87.7,90.8 32.57,53.7 21.89,89.7 19.52,157.8 -1.97,2.5 -4.11,5.9 -5.52,7.9 -1.35,1.9 -3.71,5.2 -5.32,7.5 l -61.78,77.5 c -26.36,23.4 -68.45,43.2 -108.24,52.8 -41.68,10.1 -97.63,-6.6 -129.61,-24.3 -52.15,-28.8 -58.46,-47.8 -78.72,-81.4 -45.8,-75.8 -34.18,-186.6 35.74,-247.6 118.02,-103.1 187.89,-44.3 246.23,-41"
         style="fill:#020203;fill-opacity:1;fill-rule:evenodd;stroke:none"
         transform="matrix(0.13333333,0,0,-0.13333333,0,4002.6667)" />
      <path
         id="path30"
         d="m 12394.5,20930 c 43.5,-222.8 231.5,-190.3 465.5,-190.3 h 3910 c 52.5,0 117.7,-3.4 168.6,2 87.4,9.2 159.2,47.5 198.1,121.7 19.2,36.5 28.5,84.5 22.2,134.1 -31.6,248 -292,197 -468.9,197 h -3910 c -107.3,0 -224.3,13.9 -299.4,-36.3 -50.9,-34.1 -103.1,-141.3 -86.1,-228.2"
         style="fill:#010101;fill-opacity:1;fill-rule:evenodd;stroke:none"
         transform="matrix(0.13333333,0,0,-0.13333333,0,4002.6667)" />
      <path
         id="path33"
         d="m 10120,18351.1 h 2955 c 73.9,0 140.6,22.9 184.9,58.9 49.5,40.2 80,81.1 80.8,170 0.5,62.6 -5.7,64.3 -18.9,104.2 -12.5,37.7 -6.8,37 -29.3,57.7 -12.5,11.5 -11.3,9.5 -21.6,18.6 l -34.1,24.4 c -12.1,5.4 -38.4,13.2 -53.3,18.2 -46,15.7 -58.1,15.7 -113.5,15.7 -311.1,0 -2996.8,11.8 -3064.8,-7.2 -1.2,-0.3 -41.51,-17.4 -41.95,-17.6 -102.16,-52.5 -144.05,-229.1 -99.27,-311.7 53.65,-98.9 148.32,-131.2 256.02,-131.2"
         style="fill:#010101;fill-opacity:1;fill-rule:evenodd;stroke:none"
         transform="matrix(0.13333333,0,0,-0.13333333,0,4002.6667)" />
      <path
         id="path34"
         d="m 2545.3333,1921.5068 h 293.3333 c 22.4,0 38.5733,-15.3067 33.6933,-38.92 -0.88,-4.2934 -6.32,-12.28 -9.0933,-15.1067 -6.4533,-6.6 -14.2,-7.8133 -25.9333,-7.8133 h -293.3334 c -19.4933,0 -35.08,11.3066 -35.0133,31.0133 0.067,20.3733 15.8133,30.8267 36.3467,30.8267"
         style="fill:#010101;fill-opacity:1;fill-rule:evenodd;stroke:none;stroke-width:0.133333" />
      <path
         id="path25"
         d="m 8383.76,10542.2 c -42.71,19.4 -57.04,28 -93.85,56.9 -35.82,28 -64.38,39 -94.24,66.8 -8.06,7.5 -11.53,11 -21.7,19.4 -71.9,59.5 -123.88,174.2 -159.45,257.1 l -20.06,60.3 c -26.36,60.3 -19.38,138.7 -20.59,207.3 -1.8,102.8 -0.24,207 -0.24,310 v 5580 c 0,224.5 -15.96,2438.7 9.1,2466.8 18.99,16 -7.32,4.8 28.06,11.3 66.12,12 7079.71,0.8 7379.21,0.8 156.6,0 2370.7,13.9 2463.6,-4.8 26.1,-261.2 -21.5,-1653.8 13,-1774.9 37.2,-130.5 55,-165 186.3,-199.6 60,-15.8 157.1,21.4 195.9,62.1 9.2,9.7 43.7,60.5 48.1,71.1 43.6,104.3 23.2,351.9 23.2,487.2 l -0.4,1270.4 c -0.8,60.7 -13.8,84.3 39.3,89.6 94.6,9.4 1501.9,-1.1 1651,-1.1 214,0 1860.7,12.5 2027.3,-2.2 22.9,-134.3 5,-462.2 5,-616.7 0,-2576.6 11.2,-5153.4 0,-7730 -0.6,-131.9 -80.402,-116.166 -123.502,-238.566 l -24.8,-66.1 c -24,-50.8 -49.1,-108 -83.2,-148.6 -1.4,-1.6 -3.5,-3.8 -4.9,-5.4 l -137.3,-152.5 c -28.7,-25 -154.2,-86 -205.9,-101.1 -14.478,-4.244 -2042.51,-41.434 -2956.039,-41.434 -207.261,0 -207.261,0 -207.261,316.944 0,1236.161 19.99,5710.78 20.802,5956.856 0.3,111.4 -9.4,142.5 -54.5,215.6 -23.3,37.8 -17.8,23.7 -54.8,45.3 -32.3,18.8 -79.9,39.8 -120.8,40 -132.771,5.061 -229.915,-39.45 -250.197,-152.338 -57.657,-320.919 3.482,-4061.387 0,-6092.119 0,-330.243 0,-330.243 -277.286,-330.243 -2500.571,0 -9090.4652,25.636 -9178.857,65.9 z M 22510,21374.3 V 11007.1 c -0.5,-5.8 -1.1,-11 -2,-15.1 l -15.5,-44.5 c -5.5,-22.3 -1.8,-26.8 -8.8,-51.2 l -97.9,-252.1 c -33.9,-66.3 -68.1,-128.3 -115.8,-184.2 l -336.9,-303.1 c -4.7,-2.8 -11.5,-7.2 -18.6,-11.4 -8.4,-5 -10.6,-6 -19,-11 -21.5,-13 -18.2,-12.5 -37.5,-22.5 -85,-44.1 -164.1,-71.3 -254.4,-95.7 -25.6,-6.9 -12.4,-6.1 -43.5,-16.38 -90.1,-29.82 -13029.31,-13.51 -13068,-7.82 l -137.85,42.1 c -29.89,13.9 0.7,5.6 -35.67,14.4 -69.35,16.7 -110.19,36.3 -169.52,70.5 l -24.6,15.4 c -87.78,52.9 -171.87,112.2 -248.27,181.7 l -59.4,60.6 c -63.5,72.6 -107.87,140.7 -157.59,222.4 l -68.25,131.7 c -8.63,27.3 -2.95,17.3 -14.47,45.6 -12.25,30 -8.05,13.7 -15.07,44.9 -33.06,147.2 -51.48,114 -51.41,298.6 v 10110 156.8 c 1.07,6.5 2.43,12.9 4.12,19.1 l 13.27,36.7 c 6.75,27.5 -0.23,21.8 10.14,49.9 11.14,30.1 9.99,9.9 19.12,40.8 23.4,79.3 42.55,147.3 84.22,215.8 4.58,7.6 13.95,24.5 17.97,32.1 17,31.8 21.42,48.9 42.32,77.6 87,119.7 123.89,163.5 238.91,261.1 1.58,1.4 3.86,3.3 5.43,4.6 1.57,1.3 3.82,3.3 5.39,4.6 85.46,73.1 148.5,99.7 243.57,156.4 60.84,36.4 126.33,44 187.73,72.3 105.47,48.6 400.97,52.2 527.81,52.2 h 12200 c 87.9,0 157.1,-3.4 230.5,-9.5 128.5,-10.6 178.9,7.4 310.2,-49.8 59.4,-25.8 96.4,-18.3 174.8,-65.2 l 195.6,-114.4 c 105.6,-89.2 169.2,-141.5 254.7,-255.3 l 133.3,-216.7 c 29.9,-55.1 36.3,-124.6 59.7,-180.3 l 31.5,-98.5 c 4.7,-14 7.8,-29.6 9.7,-46 z M 7977.67,21160 c 0,114.5 21.2,244.5 61.88,331.3 11.86,25.3 18.58,28.4 35.61,63.1 l 115.97,164 114.66,86.5 c 32.25,25.3 20.72,17.7 60.76,37.6 l 13.41,6.9 c 75.93,40.8 39.51,31.7 119.41,48.9 77.52,16.6 -14.8,32 250.63,32 h 12520 c 273.8,0 157.6,-13.3 269.3,-34.7 70.8,-13.5 224.5,-124.9 279.1,-168.3 l 37.3,-41 c 9.7,-11.9 22.5,-27.8 31.1,-39.2 73,-96.3 83.3,-156.9 123.8,-167.1 5.4,-122.8 10.5,-81.9 26.3,-120.4 18.7,-45.3 12.4,-1242.3 6.7,-1314.5 l -14061.32,-1.6 c -12.57,126.7 -4.61,925.2 -4.61,1116.5"
         style="fill:#010101;fill-opacity:1;fill-rule:evenodd;stroke:none"
         transform="matrix(0.13333333,0,0,-0.13333333,0,4002.6667)"
         sodipodi:nodetypes="ccsccccssccsccccccccscscccccccssccccsssccccccccccccccccccccccccccccccccccccscccsscccccccccccccccccssccccccccc" />
      <path
         id="path35"
         d="m 2545.3333,2054.0934 h 294.6666 c 41.6534,0 43.2534,-54.0666 10.7734,-58.76 -7.3334,-1.0666 -4.8534,-2.48 -13.44,-2.48 h -292.16 c -9.2267,0 -18.4,2.7734 -24.5867,7.56 l -4.3467,3.9467 c -8.2666,10.8267 -9.56,26.36 -1.0666,37.76 5.7066,7.6533 18,11.9733 30.16,11.9733"
         style="fill:#010101;fill-opacity:1;fill-rule:evenodd;stroke:none;stroke-width:0.133333" />
      <path
         id="path36"
         d="m 2543.9999,2187.1468 h 294.6667 c 13.9733,0 25.16,-5.6 31.8267,-16.64 4.5466,-7.52 6.3333,-38.04 -19.6934,-42.0134 -7.1733,-1.0933 -5.3066,-2.4 -13.4666,-2.4 h -292 c -13.1467,0 -25.9867,4.36 -32.8534,15.6667 -6.8666,11.28 -4.0533,27.1867 6.2134,36.8933 5.6133,5.3067 16.92,8.4934 25.3066,8.4934"
         style="fill:#010101;fill-opacity:1;fill-rule:evenodd;stroke:none;stroke-width:0.133333" />
      <path
         id="path37"
         d="m 2543.9999,2452.7067 h 296 c 8.5467,0 14.2667,-1.1733 21.1467,-6.1733 0.5733,-0.4267 1.7467,-1.3333 2.2267,-1.7333 16.0933,-13.1067 15.5866,-53.0667 -26.04,-53.0667 h -292 c -33.0934,0 -41.4134,27.16 -32.76,43.4933 l 5.6533,7.7467 c 6.5733,6.8667 16.0533,9.7333 25.7733,9.7333"
         style="fill:#010101;fill-opacity:1;fill-rule:evenodd;stroke:none;stroke-width:0.133333" />
      <path
         id="path39"
         d="m 14099.9,16440.4 c 28.6,-17.2 22.9,-24.8 70.1,-20.9 501.3,13.7 1025.8,-0.4 1530,-0.4 124.6,0 682.9,-7.4 758.4,4.2 215.4,33.1 231.1,347.2 35.6,419.4 -51.7,19.1 -1955.4,17.7 -2264.1,10.9 -114.1,-2.5 -188.7,-46.4 -225.3,-157.7 -17.3,-52.8 -8.8,-107.9 12.6,-150.4 30.6,-61 61.3,-69.3 82.7,-105.1"
         style="fill:#010101;fill-opacity:1;fill-rule:evenodd;stroke:none"
         transform="matrix(0.13333333,0,0,-0.13333333,0,4002.6667)" />
      <path
         id="path16-2"
         d="m 1472.7031,1939.2332 h 281.3334 c 44.4266,0 47.28,-51.6133 15.6,-60.4266 -15.1867,-4.2134 -261.48,-1.8667 -298.2667,-1.8667 -39.0133,0 -43.92,39.8667 -23.8933,54.5733 10.1466,7.4534 2.64,4.6934 9.3733,6.0934 4.64,0.96 10.8133,1.6266 15.8533,1.6266"
         style="fill:#020203;fill-opacity:1;fill-rule:evenodd;stroke:none;stroke-width:0.133333" />
      <path
         id="path40"
         d="m 12650,17384.6 h 1535 c 93.3,0 145.4,29.2 203.8,85.6 62.3,60.2 58.8,245.4 -32.5,316.6 -31.2,24.4 -39.6,27.8 -84.4,38.1 -47.6,10.9 -39.9,17.9 -101.9,17.9 h -1500 c -126.6,0 -187.7,-40.3 -247.7,-135.2 -14.2,-22.4 0.6,11.6 -11.7,-19.6 -14.2,-36 -10.7,-139.2 4.4,-171.6 30.9,-66.5 127.8,-131.8 235,-131.8"
         style="fill:#010101;fill-opacity:1;fill-rule:evenodd;stroke:none"
         transform="matrix(0.13333333,0,0,-0.13333333,0,4002.6667)" />
      <path
         id="path41"
         d="m 10100,17384.6 1589.1,3.5 c 31.8,7.3 40.3,17.4 41.5,17.8 50,19.7 64.6,3.4 111.6,62.8 2.3,2.9 23.7,34 24.5,35.8 14.9,32.6 12.6,78.2 12.3,115.7 -0.4,49.1 -0.3,65.4 -18,98.6 -0.7,1.3 -24.4,36.6 -24.6,36.8 -48.7,61.3 -135.2,87.1 -206.4,87.1 l -1510,0.1 c -75.7,0 -137.14,-13.9 -183.17,-49.9 -92.77,-72.5 -126.38,-229 -14.2,-340.2 46.35,-46 106.17,-68.1 177.37,-68.1"
         style="fill:#010101;fill-opacity:1;fill-rule:evenodd;stroke:none"
         transform="matrix(0.13333333,0,0,-0.13333333,0,4002.6667)" />
      <path
         id="path42"
         d="m 9048.8,17810 c -52.59,-27.9 -97.62,-77 -114.07,-156 -7.83,-37.6 -5.99,-80.1 7.51,-121.9 8.49,-26.4 39.86,-75.5 55.99,-82.2 84.23,-33.4 120.38,-85.1 225.13,-44.1 208.73,81.7 166.38,298.4 68.3,375.8 -79.03,62.3 -141.52,47.1 -242.86,28.4"
         style="fill:#010101;fill-opacity:1;fill-rule:evenodd;stroke:none"
         transform="matrix(0.13333333,0,0,-0.13333333,0,4002.6667)" />
      <path
         id="path43"
         d="m 8944.91,18505.4 c -0.16,-43.9 6.14,-23.2 18.87,-50.2 l 69.88,-51.7 c 221.65,-153.9 507.95,185.7 228.17,368.4 -63.22,41.3 -125.82,40.8 -195.02,12.6 -160.45,-65.4 -122.4,-224.8 -121.9,-279.1"
         style="fill:#010101;fill-opacity:1;fill-rule:evenodd;stroke:none"
         transform="matrix(0.13333333,0,0,-0.13333333,0,4002.6667)" />
      <path
         id="path44"
         d="m 8979.03,13648 c 2.35,-12.1 -0.95,-8.7 11.02,-20.4 l 43.56,-24.1 c 84.62,-53.2 219,-36.8 281.23,30.9 29.29,31.8 64.63,111 59.21,155.4 -24.67,202.1 -214.33,266.6 -346.44,172 -109.17,-78.2 -98.28,-192.8 -48.58,-313.8"
         style="fill:#010101;fill-opacity:1;fill-rule:evenodd;stroke:none"
         transform="matrix(0.13333333,0,0,-0.13333333,0,4002.6667)" />
      <path
         id="path46"
         d="m 10029.6,20890 c -14.3,58.1 -9.9,154.4 16.9,193.8 123.7,181.3 336.4,100.9 387.1,-29.5 18.9,-48.8 15.7,-153.2 -9.5,-188.5 -28.4,-39.8 -71.8,-75.7 -118,-93.5 -60.1,-23.2 -108.6,-28.6 -174.2,9.1 -30.4,17.5 -94.6,77.3 -102.3,108.6 z m 1537,2.8 c -72.1,-144.9 -258.3,-229.1 -397,-33.6 -20.1,28.3 -25.5,32.4 -27.7,80 -10.1,210.4 156.7,271.9 287.9,232.2 79.1,-23.8 146.2,-108 149.3,-180.8 1.5,-34.9 -1.2,-75.1 -12.5,-97.8 z M 9247,21030.1 c 2.37,-68.1 13.05,-104.1 -19.52,-157.8 -42.14,-69.5 -27.35,-52.5 -87.7,-90.8 -4.77,-9.4 6.04,-27.7 -59.04,-36.7 -81.89,-11.2 -144.69,7.1 -203.83,62.1 -78.95,73.3 -85.61,208.7 -25.79,303 l 27.62,30.1 c 95.82,67.9 170.95,91.6 300.68,8.5 40.01,-25.6 64.46,-64.5 67.58,-118.4 z m 11666.7,135.1 c 10.5,-0.1 172.9,74.2 267.6,-54.2 72.6,-98.5 47.1,-254.9 -10.6,-291.1 -11.4,-28.7 -13.1,-38.6 -67.9,-63.6 -29.7,-13.5 -75.5,-16.5 -113.3,-13.2 -117.4,10.4 -161.6,88.3 -195.8,179.6 -26.9,71.8 21.4,176.7 68.2,216.4 17,14.4 28.7,19.2 51.8,26.1 z M 12394.5,20930 c -17,86.9 35.2,194.1 86.1,228.2 75.1,50.2 192.1,36.3 299.4,36.3 h 3910 c 176.9,0 437.3,51 468.9,-197 6.3,-49.6 -3,-97.6 -22.2,-134.1 -38.9,-74.2 -110.7,-112.5 -198.1,-121.7 -50.9,-5.4 -116.1,-2 -168.6,-2 h -3910 c -234,0 -422,-32.5 -465.5,190.3 z m -4416.83,230 c 0,-191.3 -7.96,-989.8 4.61,-1116.5 l 14061.32,1.6 c 5.7,72.2 12,1269.2 -6.7,1314.5 -15.8,38.5 -20.9,-2.4 -26.3,120.4 -40.5,10.2 -50.8,70.8 -123.8,167.1 -8.6,11.4 -21.4,27.3 -31.1,39.2 l -37.3,41 c -54.6,43.4 -208.3,154.8 -279.1,168.3 -111.7,21.4 4.5,34.7 -269.3,34.7 H 8750 c -265.43,0 -173.11,-15.4 -250.63,-32 -79.9,-17.2 -43.48,-8.1 -119.41,-48.9 l -13.41,-6.9 c -40.04,-19.9 -28.51,-12.3 -60.76,-37.6 l -114.66,-86.5 -115.97,-164 c -17.03,-34.7 -23.75,-37.8 -35.61,-63.1 -40.68,-86.8 -61.88,-216.8 -61.88,-331.3"
         style="fill:#6d4aed;fill-opacity:1;fill-rule:evenodd;stroke:none"
         transform="matrix(0.13333333,0,0,-0.13333333,0,4002.6667)" />
      <path
         id="path48"
         d="m 11566.6,20892.8 c 11.3,22.7 14,62.9 12.5,97.8 -3.1,72.8 -70.2,157 -149.3,180.8 -131.2,39.7 -298,-21.8 -287.9,-232.2 2.2,-47.6 7.6,-51.7 27.7,-80 138.7,-195.5 324.9,-111.3 397,33.6"
         style="fill:#030208;fill-opacity:1;fill-rule:evenodd;stroke:none"
         transform="matrix(0.13333333,0,0,-0.13333333,0,4002.6667)" />
      <path
         id="path49"
         d="m 10130,14496.8 h 4588.167 c 160.1,0 304.9,65.8 299.1,241.8 -5.2,159.5 -130.4,241.4 -294.1,241.4 H 10130 c -320.82,0 -353.73,-296.2 -213.07,-422.8 56.46,-50.8 115.07,-60.4 213.07,-60.4"
         style="fill:#25232c;fill-opacity:1;fill-rule:evenodd;stroke:none"
         transform="matrix(0.13333333,0,0,-0.13333333,0,4002.6667)"
         sodipodi:nodetypes="cscsscc" />
      <path
         id="path51"
         d="m 8979.03,13648 c -49.7,121 -60.59,235.6 48.58,313.8 132.11,94.6 321.77,30.1 346.44,-172 5.42,-44.4 -29.92,-123.6 -59.21,-155.4 -62.23,-67.7 -196.61,-84.1 -281.23,-30.9 l -43.56,24.1 c 6.74,-27.5 -9,-23 59.41,-58.2 93.75,-48.2 199.42,-29.3 261.41,28.8 227.18,212.8 -40.65,554.7 -298.05,378.7 -164.47,-112.4 -78.1,-277.2 -66.02,-320.4 l 32.23,-8.5"
         style="fill:#2b2a32;fill-opacity:1;fill-rule:evenodd;stroke:none"
         transform="matrix(0.13333333,0,0,-0.13333333,0,4002.6667)" />
      <path
         id="path53"
         d="m 8944.91,18505.4 c -0.5,54.3 -38.55,213.7 121.9,279.1 69.2,28.2 131.8,28.7 195.02,-12.6 279.78,-182.7 -6.52,-522.3 -228.17,-368.4 l -69.88,51.7 c 34.15,-109.8 217.68,-128.3 275.32,-102.7 317.53,141.2 97.66,598.6 -189.47,448.7 -58.36,-30.5 -81.77,-58.5 -113.59,-117.9 -22.86,-42.6 -53.22,-154.1 8.87,-177.9"
         style="fill:#2e2d34;fill-opacity:1;fill-rule:evenodd;stroke:none"
         transform="matrix(0.13333333,0,0,-0.13333333,0,4002.6667)" />
      <path
         id="path56"
         d="m 9139.78,20781.5 c -58.34,-3.3 -128.21,-62.1 -246.23,41 -69.92,61 -81.54,171.8 -35.74,247.6 20.26,33.6 26.57,52.6 78.72,81.4 31.98,17.7 87.93,34.4 129.61,24.3 39.79,-9.6 81.88,-29.4 108.24,-52.8 l 61.78,-77.5 c 1.61,-2.3 3.97,-5.6 5.32,-7.5 1.41,-2 3.55,-5.4 5.52,-7.9 -3.12,53.9 -27.57,92.8 -67.58,118.4 -129.73,83.1 -204.86,59.4 -300.68,-8.5 l -27.62,-30.1 c -59.82,-94.3 -53.16,-229.7 25.79,-303 59.14,-55 121.94,-73.3 203.83,-62.1 65.08,9 54.27,27.3 59.04,36.7"
         style="fill:#3c2981;fill-opacity:1;fill-rule:evenodd;stroke:none"
         transform="matrix(0.13333333,0,0,-0.13333333,0,4002.6667)" />
      <path
         id="path57"
         d="m 21170.7,20819.9 c -84.8,-32.3 -99,-92.5 -243.7,-34.7 -144.1,57.6 -152.4,303.8 -23.4,351.1 l 10.1,28.9 c -23.1,-6.9 -34.8,-11.7 -51.8,-26.1 -46.8,-39.7 -95.1,-144.6 -68.2,-216.4 34.2,-91.3 78.4,-169.2 195.8,-179.6 37.8,-3.3 83.6,-0.3 113.3,13.2 54.8,25 56.5,34.9 67.9,63.6"
         style="fill:#3d2a85;fill-opacity:1;fill-rule:evenodd;stroke:none"
         transform="matrix(0.13333333,0,0,-0.13333333,0,4002.6667)" />
      <g
         id="g289"
         transform="matrix(1.1387123,0,0,1.1387123,86.188762,-889.80698)">
        <g
           id="g57">
          <path
             id="path49-0"
             d="m 18098.5,16515.6 c 0,-1658.8 -1344.7,-3003.5 -3003.5,-3003.5 -1658.8,0 -3003.6,1344.7 -3003.6,3003.5 0,1658.8 1344.8,3003.6 3003.6,3003.6 1658.8,0 3003.5,-1344.8 3003.5,-3003.6"
             style="fill:url(#linearGradient50);fill-opacity:1;fill-rule:nonzero;stroke:#1d1b16;stroke-width:290.25;stroke-dasharray:none;stroke-opacity:1;paint-order:stroke fill markers"
             transform="matrix(0.13333333,0,0,-0.13333333,0,4400)"
             clip-path="none" />
          <path
             id="path51-9"
             d="m 16660.4,14950.2 -3.1,-3.1 c -186.2,-186.2 -488.2,-186.2 -674.4,0 l -891,891 -934.3,-934.3 c -186.3,-186.3 -488.2,-186.3 -674.5,0 v 0 c -186.2,186.2 -186.2,488.2 0,674.4 l 934.3,934.3 -890.9,891 c -186.3,186.2 -186.3,488.2 0,674.4 l 3.1,3.1 c 186.2,186.3 488.2,186.3 674.4,0 l 891,-890.9 937.4,937.3 c 186.2,186.3 488.2,186.3 674.4,0 v 0 c 186.2,-186.2 186.2,-488.2 0,-674.4 l -937.4,-937.4 891,-891 c 186.2,-186.2 186.2,-488.2 0,-674.4"
             style="fill:#ffffff;fill-opacity:1;fill-rule:nonzero;stroke:#1c1b17;stroke-width:208.5;stroke-dasharray:none;stroke-opacity:1;paint-order:stroke fill markers"
             transform="matrix(0.13333333,0,0,-0.13333333,0,4400)" />
        </g>
      </g>
    </g>
  </g>
</svg>
